<svg xmlns="http://www.w3.org/2000/svg" viewBox="0 0 512 512">
  <defs>
    <linearGradient id="bgGrad" x1="0%" y1="0%" x2="100%" y2="100%">
      <stop offset="0%" stop-color="#6366f1"/>
      <stop offset="100%" stop-color="#06b6d4"/>
    </linearGradient>
    <linearGradient id="sparkleGrad" x1="0%" y1="0%" x2="100%" y2="100%">
      <stop offset="0%" stop-color="#FACC15"/>
      <stop offset="100%" stop-color="#F97316"/>
    </linearGradient>
  </defs>
  <!-- Rounded square background -->
  <rect width="512" height="512" rx="112" fill="url(#bgGrad)"/>
  <!-- PenTool icon (Lucide) centered -->
  <g transform="translate(113, 113) scale(12)" fill="none" stroke="white" stroke-width="2" stroke-linecap="round" stroke-linejoin="round">
    <path d="M12 19l7-7 3 3-7 7-4 1 1-4z"/>
    <path d="M18 13l-1.5-7.5L2 2l3.5 14.5L13 18l5-5z"/>
    <path d="M2 2l7.586 7.586"/>
    <circle cx="11" cy="11" r="2" fill="white"/>
  </g>
  <!-- Sparkle indicator top-right -->
  <circle cx="430" cy="82" r="62" fill="url(#sparkleGrad)"/>
  <!-- Sparkle star -->
  <g transform="translate(430, 82)" fill="white">
    <path d="M0 -30 L0 30 M-30 0 L30 0" stroke="white" stroke-width="12" stroke-linecap="round"/>
    <path d="M-20 -20 L20 20 M20 -20 L-20 20" stroke="white" stroke-width="8" stroke-linecap="round"/>
  </g>
</svg>